<mxfile host="app.diagrams.net" modified="2021-08-05T07:25:38.712Z" agent="5.0 (Windows NT 10.0; Win64; x64) AppleWebKit/537.36 (KHTML, like Gecko) Chrome/92.0.4515.107 Safari/537.36" etag="_kXmireWrFYoRKoqXclN" version="14.9.4" type="github">
  <diagram id="hadV3jxKsZsVeSMtyp6E" name="Page-1">
    <mxGraphModel dx="1422" dy="1875" grid="1" gridSize="10" guides="1" tooltips="1" connect="1" arrows="1" fold="1" page="1" pageScale="1" pageWidth="827" pageHeight="1169" math="0" shadow="0">
      <root>
        <mxCell id="0" />
        <mxCell id="1" parent="0" />
        <mxCell id="VvRNQuSe1x1naTqKAvL5-1" style="edgeStyle=orthogonalEdgeStyle;rounded=0;orthogonalLoop=1;jettySize=auto;html=1;exitX=0.5;exitY=1;exitDx=0;exitDy=0;entryX=0.5;entryY=0;entryDx=0;entryDy=0;fontSize=16;" parent="1" source="VvRNQuSe1x1naTqKAvL5-9" edge="1">
          <mxGeometry relative="1" as="geometry">
            <mxPoint x="310" y="-920" as="targetPoint" />
            <mxPoint x="410" y="-1010" as="sourcePoint" />
          </mxGeometry>
        </mxCell>
        <mxCell id="VvRNQuSe1x1naTqKAvL5-2" value="郭&#xa;生&#xa;鮮" style="swimlane;fontStyle=1;childLayout=stackLayout;horizontal=1;startSize=100;horizontalStack=0;resizeParent=1;resizeParentMax=0;resizeLast=0;collapsible=1;marginBottom=0;fontSize=16;labelBorderColor=none;labelBackgroundColor=#ffffff;" parent="1" vertex="1">
          <mxGeometry x="270" y="-950" width="180" height="264" as="geometry">
            <mxRectangle x="270" y="-950" width="70" height="100" as="alternateBounds" />
          </mxGeometry>
        </mxCell>
        <mxCell id="VvRNQuSe1x1naTqKAvL5-3" value="-name: String" style="text;strokeColor=none;fillColor=none;align=left;verticalAlign=top;spacingLeft=4;spacingRight=4;overflow=hidden;rotatable=0;points=[[0,0.5],[1,0.5]];portConstraint=eastwest;fontSize=16;" parent="VvRNQuSe1x1naTqKAvL5-2" vertex="1">
          <mxGeometry y="100" width="180" height="26" as="geometry" />
        </mxCell>
        <mxCell id="VvRNQuSe1x1naTqKAvL5-4" value="123456789" style="text;strokeColor=none;fillColor=none;align=left;verticalAlign=top;spacingLeft=4;spacingRight=4;overflow=hidden;rotatable=0;points=[[0,0.5],[1,0.5]];portConstraint=eastwest;fontSize=16;" parent="VvRNQuSe1x1naTqKAvL5-2" vertex="1">
          <mxGeometry y="126" width="180" height="26" as="geometry" />
        </mxCell>
        <mxCell id="VvRNQuSe1x1naTqKAvL5-5" value="" style="line;strokeWidth=1;fillColor=none;align=left;verticalAlign=middle;spacingTop=-1;spacingLeft=3;spacingRight=3;rotatable=0;labelPosition=right;points=[];portConstraint=eastwest;fontSize=16;" parent="VvRNQuSe1x1naTqKAvL5-2" vertex="1">
          <mxGeometry y="152" width="180" height="8" as="geometry" />
        </mxCell>
        <mxCell id="VvRNQuSe1x1naTqKAvL5-6" value="22222" style="text;strokeColor=none;fillColor=none;align=left;verticalAlign=top;spacingLeft=4;spacingRight=4;overflow=hidden;rotatable=0;points=[[0,0.5],[1,0.5]];portConstraint=eastwest;fontSize=16;" parent="VvRNQuSe1x1naTqKAvL5-2" vertex="1">
          <mxGeometry y="160" width="180" height="26" as="geometry" />
        </mxCell>
        <mxCell id="VvRNQuSe1x1naTqKAvL5-7" value="+setName(String): void" style="text;strokeColor=none;fillColor=none;align=left;verticalAlign=top;spacingLeft=4;spacingRight=4;overflow=hidden;rotatable=0;points=[[0,0.5],[1,0.5]];portConstraint=eastwest;fontSize=16;" parent="VvRNQuSe1x1naTqKAvL5-2" vertex="1">
          <mxGeometry y="186" width="180" height="26" as="geometry" />
        </mxCell>
        <mxCell id="VvRNQuSe1x1naTqKAvL5-8" value="+isBirthday(): boolean" style="text;strokeColor=none;fillColor=none;align=left;verticalAlign=top;spacingLeft=4;spacingRight=4;overflow=hidden;rotatable=0;points=[[0,0.5],[1,0.5]];portConstraint=eastwest;fontSize=16;" parent="VvRNQuSe1x1naTqKAvL5-2" vertex="1">
          <mxGeometry y="212" width="180" height="52" as="geometry" />
        </mxCell>
        <mxCell id="VvRNQuSe1x1naTqKAvL5-9" value="郭&#xa;生&#xa;鮮" style="swimlane;fontStyle=1;childLayout=stackLayout;horizontal=1;startSize=100;horizontalStack=0;resizeParent=1;resizeParentMax=0;resizeLast=0;collapsible=1;marginBottom=0;fontSize=16;labelBorderColor=none;labelBackgroundColor=#ffffff;" parent="1" vertex="1" collapsed="1">
          <mxGeometry x="380" y="-1130" width="70" height="100" as="geometry">
            <mxRectangle x="380" y="-1130" width="180" height="264" as="alternateBounds" />
          </mxGeometry>
        </mxCell>
        <mxCell id="VvRNQuSe1x1naTqKAvL5-10" value="-name: String" style="text;strokeColor=none;fillColor=none;align=left;verticalAlign=top;spacingLeft=4;spacingRight=4;overflow=hidden;rotatable=0;points=[[0,0.5],[1,0.5]];portConstraint=eastwest;fontSize=16;" parent="VvRNQuSe1x1naTqKAvL5-9" vertex="1">
          <mxGeometry y="100" width="70" height="26" as="geometry" />
        </mxCell>
        <mxCell id="VvRNQuSe1x1naTqKAvL5-11" value="-birthDate: Date" style="text;strokeColor=none;fillColor=none;align=left;verticalAlign=top;spacingLeft=4;spacingRight=4;overflow=hidden;rotatable=0;points=[[0,0.5],[1,0.5]];portConstraint=eastwest;fontSize=16;" parent="VvRNQuSe1x1naTqKAvL5-9" vertex="1">
          <mxGeometry y="126" width="70" height="26" as="geometry" />
        </mxCell>
        <mxCell id="VvRNQuSe1x1naTqKAvL5-12" value="" style="line;strokeWidth=1;fillColor=none;align=left;verticalAlign=middle;spacingTop=-1;spacingLeft=3;spacingRight=3;rotatable=0;labelPosition=right;points=[];portConstraint=eastwest;fontSize=16;" parent="VvRNQuSe1x1naTqKAvL5-9" vertex="1">
          <mxGeometry y="152" width="70" height="8" as="geometry" />
        </mxCell>
        <mxCell id="VvRNQuSe1x1naTqKAvL5-13" value="+getName(): String" style="text;strokeColor=none;fillColor=none;align=left;verticalAlign=top;spacingLeft=4;spacingRight=4;overflow=hidden;rotatable=0;points=[[0,0.5],[1,0.5]];portConstraint=eastwest;fontSize=16;" parent="VvRNQuSe1x1naTqKAvL5-9" vertex="1">
          <mxGeometry y="160" width="70" height="26" as="geometry" />
        </mxCell>
        <mxCell id="VvRNQuSe1x1naTqKAvL5-14" value="+setName(String): void" style="text;strokeColor=none;fillColor=none;align=left;verticalAlign=top;spacingLeft=4;spacingRight=4;overflow=hidden;rotatable=0;points=[[0,0.5],[1,0.5]];portConstraint=eastwest;fontSize=16;" parent="VvRNQuSe1x1naTqKAvL5-9" vertex="1">
          <mxGeometry y="186" width="70" height="26" as="geometry" />
        </mxCell>
        <mxCell id="VvRNQuSe1x1naTqKAvL5-15" value="+isBirthday(): boolean" style="text;strokeColor=none;fillColor=none;align=left;verticalAlign=top;spacingLeft=4;spacingRight=4;overflow=hidden;rotatable=0;points=[[0,0.5],[1,0.5]];portConstraint=eastwest;fontSize=16;" parent="VvRNQuSe1x1naTqKAvL5-9" vertex="1">
          <mxGeometry y="212" width="70" height="52" as="geometry" />
        </mxCell>
      </root>
    </mxGraphModel>
  </diagram>
</mxfile>
